<svg width="100" height="100" viewBox="0 0 100 100" fill="none" xmlns="http://www.w3.org/2000/svg">
<g id="01 Images / Placeholder Alt.">
<rect width="100" height="100" rx="4.2" fill="#EEEEEE"/>
<path id="Exclude" d="M55.7391 33L56.6051 32.5L55.7391 31L54.8731 32.5L55.7391 33ZM68.9357 55.8573V56.8573H70.6678L69.8018 55.3573L68.9357 55.8573ZM42.5424 55.8573L41.6764 55.3573L40.8104 56.8573H42.5424V55.8573ZM54.8731 33.5L68.0697 56.3573L69.8018 55.3573L56.6051 32.5L54.8731 33.5ZM49.2231 46.286L56.6051 33.5L54.8731 32.5L47.491 45.286L49.2231 46.286ZM42.4286 45.1301C44.4109 45.1301 46.2612 45.6822 47.8376 46.6405L48.8765 44.9316C46.9959 43.7883 44.7876 43.1301 42.4286 43.1301V45.1301ZM32 55.5588C32 49.7992 36.6691 45.1301 42.4286 45.1301V43.1301C35.5645 43.1301 30 48.6946 30 55.5588H32ZM42.4286 65.9874C36.6691 65.9874 32 61.3183 32 55.5588H30C30 62.4229 35.5645 67.9874 42.4286 67.9874V65.9874ZM52.8538 55.8316C52.7094 61.4648 48.097 65.9874 42.4286 65.9874V67.9874C49.1844 67.9874 54.681 62.5975 54.8531 55.8829L52.8538 55.8316ZM68.9357 54.8573H53.8535V56.8573H68.9357V54.8573ZM53.8535 54.8573H42.5424V56.8573H53.8535V54.8573ZM43.4085 56.3573L49.2231 46.286L47.491 45.286L41.6764 55.3573L43.4085 56.3573ZM47.8376 46.6405C50.8493 48.4714 52.8573 51.7811 52.8573 55.5588H54.8573C54.8573 51.054 52.4601 47.1101 48.8765 44.9316L47.8376 46.6405ZM52.8573 55.5588C52.8573 55.65 52.8561 55.741 52.8538 55.8316L54.8531 55.8829C54.8559 55.7752 54.8573 55.6671 54.8573 55.5588H52.8573Z" fill="#AAAAAA"/>
</g>
</svg>
