<svg width="500" height="500" viewBox="0 0 500 500" fill="none" xmlns="http://www.w3.org/2000/svg">
<g clip-path="url(#clip0_426_295)">
<rect width="500" height="500" rx="2" fill="#EEEEEE"/>
<rect x="242" y="244" width="16" height="12" rx="1" stroke="#BBBBBB" stroke-width="2"/>
<path fill-rule="evenodd" clip-rule="evenodd" d="M251.571 253.429L248 249.5L243 255H250H253H257L253.5 251.5L251.571 253.429Z" fill="#BBBBBB"/>
<circle cx="251.5" cy="248" r="1.5" fill="#BBBBBB"/>
<path d="M500.707 0.707107C501.098 0.316583 501.098 -0.316583 500.707 -0.707107C500.317 -1.09763 499.683 -1.09763 499.293 -0.707107L500.707 0.707107ZM265.293 233.293C264.902 233.683 264.902 234.317 265.293 234.707C265.683 235.098 266.317 235.098 266.707 234.707L265.293 233.293ZM234.707 266.707C235.098 266.317 235.098 265.683 234.707 265.293C234.317 264.902 233.683 264.902 233.293 265.293L234.707 266.707ZM-0.707076 499.293C-1.0976 499.683 -1.0976 500.317 -0.707076 500.707C-0.316552 501.098 0.316613 501.098 0.707137 500.707L-0.707076 499.293ZM0.707107 -0.707107C0.316583 -1.09763 -0.316582 -1.09763 -0.707107 -0.707107C-1.09763 -0.316583 -1.09763 0.316582 -0.707107 0.707107L0.707107 -0.707107ZM233.293 234.707C233.683 235.098 234.317 235.098 234.707 234.707C235.098 234.317 235.098 233.683 234.707 233.293L233.293 234.707ZM266.707 265.293C266.317 264.902 265.683 264.902 265.293 265.293C264.902 265.683 264.902 266.317 265.293 266.707L266.707 265.293ZM499.293 500.707C499.683 501.098 500.317 501.098 500.707 500.707C501.098 500.317 501.098 499.683 500.707 499.293L499.293 500.707ZM499.293 -0.707107L265.293 233.293L266.707 234.707L500.707 0.707107L499.293 -0.707107ZM233.293 265.293L-0.707076 499.293L0.707137 500.707L234.707 266.707L233.293 265.293ZM-0.707107 0.707107L233.293 234.707L234.707 233.293L0.707107 -0.707107L-0.707107 0.707107ZM265.293 266.707L499.293 500.707L500.707 499.293L266.707 265.293L265.293 266.707Z" fill="#808080" fill-opacity="0.5"/>
</g>
<defs>
<clipPath id="clip0_426_295">
<rect width="500" height="500" rx="2" fill="white"/>
</clipPath>
</defs>
</svg>
