<svg width="144" height="240" viewBox="0 0 144 240" fill="none" xmlns="http://www.w3.org/2000/svg">
<g clip-path="url(#clip0_426_283)">
<rect width="240" height="144" transform="matrix(0 -1 1 0 0 240)" fill="#EEEEEE"/>
<path d="M0.428746 -0.257248C0.286672 -0.494038 -0.0204578 -0.570821 -0.257248 -0.428746C-0.494038 -0.286672 -0.570821 0.0204578 -0.428746 0.257248L0.428746 -0.257248ZM55.5713 93.5906C55.7133 93.8274 56.0205 93.9041 56.2572 93.7621C56.494 93.62 56.5708 93.3129 56.4287 93.0761L55.5713 93.5906ZM88.4287 146.409C88.2867 146.173 87.9795 146.096 87.7428 146.238C87.506 146.38 87.4292 146.687 87.5713 146.924L88.4287 146.409ZM143.571 240.257C143.713 240.494 144.02 240.571 144.257 240.429C144.494 240.287 144.571 239.98 144.429 239.743L143.571 240.257ZM-0.428746 239.743C-0.570821 239.98 -0.494038 240.287 -0.257248 240.429C-0.0204577 240.571 0.286672 240.494 0.428746 240.257L-0.428746 239.743ZM56.4287 146.924C56.5708 146.687 56.494 146.38 56.2572 146.238C56.0205 146.096 55.7133 146.173 55.5713 146.409L56.4287 146.924ZM87.5713 93.0761C87.4292 93.3129 87.506 93.62 87.7428 93.7621C87.9795 93.9041 88.2867 93.8274 88.4287 93.5906L87.5713 93.0761ZM144.429 0.257248C144.571 0.0204578 144.494 -0.286672 144.257 -0.428746C144.02 -0.570821 143.713 -0.494038 143.571 -0.257248L144.429 0.257248ZM-0.428746 0.257248L55.5713 93.5906L56.4287 93.0761L0.428746 -0.257248L-0.428746 0.257248ZM87.5713 146.924L143.571 240.257L144.429 239.743L88.4287 146.409L87.5713 146.924ZM0.428746 240.257L56.4287 146.924L55.5713 146.409L-0.428746 239.743L0.428746 240.257ZM88.4287 93.5906L144.429 0.257248L143.571 -0.257248L87.5713 93.0761L88.4287 93.5906Z" fill="black"/>
<path d="M67.2727 170.61H76V171.799H67.2727V170.61ZM76 168.719H69.4545V167.62H70.4986V167.534C70.1435 167.398 69.8665 167.178 69.6676 166.874C69.4688 166.567 69.3693 166.199 69.3693 165.77C69.3693 165.336 69.4688 164.972 69.6676 164.679C69.8665 164.384 70.1435 164.161 70.4986 164.01V163.942C70.1548 163.78 69.8807 163.53 69.6761 163.192C69.4716 162.854 69.3693 162.449 69.3693 161.978C69.3693 161.39 69.554 160.909 69.9233 160.537C70.2926 160.162 70.8565 159.975 71.6151 159.975H76V161.113H71.6747C71.2116 161.113 70.8793 161.239 70.6776 161.492C70.473 161.745 70.3707 162.044 70.3707 162.391C70.3707 162.828 70.5043 163.168 70.7713 163.409C71.0355 163.651 71.3722 163.772 71.7812 163.772H76V164.918H71.5852C71.2216 164.918 70.929 165.034 70.7074 165.267C70.483 165.498 70.3707 165.796 70.3707 166.162C70.3707 166.415 70.4375 166.65 70.571 166.865C70.7045 167.078 70.8892 167.25 71.125 167.381C71.358 167.512 71.6278 167.577 71.9347 167.577H76V168.719ZM76.1491 156.29C76.1491 156.705 76.071 157.081 75.9148 157.419C75.7585 157.754 75.5327 158.021 75.2372 158.22C74.9389 158.416 74.5753 158.514 74.1463 158.514C73.7741 158.514 73.4702 158.442 73.2344 158.297C72.9957 158.149 72.8082 157.953 72.6719 157.709C72.5355 157.464 72.4332 157.193 72.3651 156.895C72.2969 156.597 72.2443 156.294 72.2074 155.987C72.1562 155.592 72.1165 155.273 72.0881 155.028C72.0597 154.781 72.0128 154.601 71.9474 154.487C71.8821 154.374 71.7699 154.317 71.6108 154.317H71.5767C71.1818 154.317 70.875 154.426 70.6562 154.645C70.4375 154.864 70.3281 155.192 70.3281 155.629C70.3281 156.084 70.4276 156.44 70.6264 156.699C70.8253 156.957 71.0426 157.139 71.2784 157.244L70.9716 158.318C70.5739 158.162 70.2585 157.945 70.0256 157.666C69.7898 157.385 69.6222 157.071 69.5227 156.724C69.4205 156.375 69.3693 156.018 69.3693 155.655C69.3693 155.419 69.3977 155.159 69.4545 154.875C69.5085 154.591 69.6151 154.321 69.7741 154.065C69.9304 153.807 70.1619 153.594 70.4688 153.426C70.7727 153.259 71.1733 153.175 71.6705 153.175H76V154.3H75.1094V154.351C75.2628 154.425 75.4205 154.543 75.5824 154.705C75.7415 154.866 75.8764 155.078 75.9872 155.339C76.0952 155.601 76.1491 155.918 76.1491 156.29ZM75.1861 156.077C75.1861 155.699 75.1122 155.379 74.9645 155.118C74.8168 154.857 74.625 154.658 74.3892 154.521C74.1534 154.382 73.902 154.312 73.6349 154.312H72.7528C72.8011 154.358 72.8452 154.449 72.8849 154.585C72.9247 154.722 72.9588 154.878 72.9872 155.054C73.0156 155.227 73.0412 155.398 73.0639 155.565C73.0838 155.73 73.1009 155.866 73.1151 155.974C73.1491 156.227 73.2031 156.462 73.277 156.678C73.3509 156.891 73.4602 157.062 73.6051 157.193C73.7472 157.321 73.9389 157.385 74.1804 157.385C74.5128 157.385 74.7642 157.261 74.9347 157.014C75.1023 156.767 75.1861 156.455 75.1861 156.077ZM78.5909 148.717C78.5909 149.22 78.5256 149.652 78.3949 150.013C78.267 150.374 78.0966 150.672 77.8835 150.908C77.6705 151.141 77.4403 151.32 77.1932 151.445L76.6861 150.499C76.8082 150.413 76.9432 150.304 77.0909 150.17C77.2386 150.034 77.3665 149.849 77.4744 149.616C77.5824 149.384 77.6364 149.081 77.6364 148.709C77.6364 148.203 77.5128 147.786 77.2656 147.456C77.0213 147.126 76.6349 146.962 76.1065 146.962H74.7983V147.047C74.929 147.121 75.081 147.227 75.2543 147.366C75.4247 147.506 75.5753 147.702 75.706 147.955C75.8338 148.205 75.8977 148.536 75.8977 148.947C75.8977 149.47 75.7756 149.94 75.5312 150.358C75.2841 150.773 74.9219 151.101 74.4446 151.342C73.9673 151.584 73.3849 151.705 72.6974 151.705C72.0156 151.705 71.4261 151.587 70.929 151.351C70.429 151.115 70.044 150.788 69.7741 150.371C69.5043 149.953 69.3693 149.474 69.3693 148.935C69.3693 148.517 69.4389 148.183 69.5781 147.933C69.7145 147.683 69.8722 147.49 70.0511 147.354C70.2301 147.214 70.3807 147.107 70.5028 147.03V146.936H69.4545V145.824H76.1662C76.7287 145.824 77.1875 145.953 77.5426 146.212C77.9006 146.467 78.1648 146.814 78.3352 147.251C78.5057 147.689 78.5909 148.178 78.5909 148.717ZM74.9176 148.739C74.9176 148.352 74.8295 148.027 74.6534 147.763C74.4744 147.496 74.2173 147.293 73.8821 147.153C73.5469 147.014 73.1463 146.945 72.6804 146.945C72.223 146.945 71.821 147.013 71.4744 147.149C71.1278 147.286 70.8565 147.487 70.6605 147.754C70.4616 148.021 70.3622 148.349 70.3622 148.739C70.3622 149.142 70.4659 149.479 70.6733 149.749C70.8807 150.018 71.1591 150.222 71.5085 150.358C71.858 150.491 72.2486 150.558 72.6804 150.558C73.1236 150.558 73.5128 150.49 73.848 150.354C74.1832 150.214 74.446 150.011 74.6364 149.744C74.8239 149.474 74.9176 149.139 74.9176 148.739ZM76.1364 141.264C76.1364 141.903 75.9972 142.453 75.7188 142.913C75.4375 143.374 75.0455 143.729 74.5426 143.979C74.0369 144.226 73.4474 144.349 72.7741 144.349C72.1037 144.349 71.5128 144.226 71.0014 143.979C70.4872 143.729 70.0866 143.381 69.7997 142.935C69.5128 142.486 69.3693 141.962 69.3693 141.362C69.3693 141.007 69.429 140.661 69.5483 140.322C69.6648 139.982 69.8523 139.675 70.1108 139.402C70.3665 139.126 70.7031 138.909 71.1207 138.75C71.5384 138.588 72.0483 138.507 72.6506 138.507H73.0895V143.634H72.1776V139.645C71.8253 139.645 71.5128 139.716 71.2401 139.858C70.9645 139.997 70.7472 140.196 70.5881 140.455C70.429 140.71 70.3494 141.011 70.3494 141.358C70.3494 141.739 70.4418 142.068 70.6264 142.347C70.8111 142.622 71.0526 142.835 71.3509 142.986C71.6491 143.136 71.9702 143.212 72.3139 143.212H72.9744C73.4403 143.212 73.8366 143.131 74.1634 142.969C74.4872 142.804 74.7344 142.575 74.9048 142.283C75.0724 141.99 75.1562 141.649 75.1562 141.26C75.1562 141.007 75.1207 140.777 75.0497 140.57C74.9759 140.362 74.8665 140.185 74.7216 140.037C74.5767 139.886 74.3949 139.77 74.1761 139.688L74.4233 138.597C74.7642 138.696 75.0639 138.869 75.3224 139.116C75.5781 139.361 75.7784 139.666 75.9233 140.033C76.0653 140.396 76.1364 140.807 76.1364 141.264ZM76 133.631H67.2727V130.597C67.2727 129.918 67.3963 129.358 67.6435 128.918C67.8906 128.475 68.2259 128.145 68.6491 127.929C69.0696 127.713 69.5426 127.605 70.0682 127.605C70.5937 127.605 71.0682 127.713 71.4915 127.929C71.9148 128.145 72.2514 128.473 72.5014 128.914C72.7486 129.354 72.8722 129.914 72.8722 130.593V132.719H71.8452V130.669C71.8452 130.221 71.767 129.858 71.6108 129.583C71.4545 129.307 71.2429 129.107 70.9759 128.982C70.7088 128.854 70.4062 128.79 70.0682 128.79C69.7273 128.79 69.4247 128.854 69.1605 128.982C68.8935 129.107 68.6847 129.309 68.5341 129.587C68.3807 129.865 68.304 130.232 68.304 130.686V132.442H76V133.631ZM67.2727 124.968H76V126.11H67.2727V124.968ZM76.1491 121.274C76.1491 121.689 76.071 122.065 75.9148 122.403C75.7585 122.739 75.5327 123.006 75.2372 123.205C74.9389 123.401 74.5753 123.499 74.1463 123.499C73.7741 123.499 73.4702 123.426 73.2344 123.281C72.9957 123.134 72.8082 122.937 72.6719 122.693C72.5355 122.449 72.4332 122.178 72.3651 121.879C72.2969 121.581 72.2443 121.278 72.2074 120.972C72.1562 120.577 72.1165 120.257 72.0881 120.013C72.0597 119.766 72.0128 119.585 71.9474 119.472C71.8821 119.358 71.7699 119.301 71.6108 119.301H71.5767C71.1818 119.301 70.875 119.411 70.6562 119.629C70.4375 119.848 70.3281 120.176 70.3281 120.614C70.3281 121.068 70.4276 121.425 70.6264 121.683C70.8253 121.942 71.0426 122.124 71.2784 122.229L70.9716 123.303C70.5739 123.146 70.2585 122.929 70.0256 122.651C69.7898 122.369 69.6222 122.055 69.5227 121.709C69.4205 121.359 69.3693 121.003 69.3693 120.639C69.3693 120.403 69.3977 120.143 69.4545 119.859C69.5085 119.575 69.6151 119.305 69.7741 119.05C69.9304 118.791 70.1619 118.578 70.4688 118.411C70.7727 118.243 71.1733 118.159 71.6705 118.159H76V119.284H75.1094V119.335C75.2628 119.409 75.4205 119.527 75.5824 119.689C75.7415 119.851 75.8764 120.062 75.9872 120.324C76.0952 120.585 76.1491 120.902 76.1491 121.274ZM75.1861 121.061C75.1861 120.683 75.1122 120.364 74.9645 120.102C74.8168 119.841 74.625 119.642 74.3892 119.506C74.1534 119.366 73.902 119.297 73.6349 119.297H72.7528C72.8011 119.342 72.8452 119.433 72.8849 119.57C72.9247 119.706 72.9588 119.862 72.9872 120.038C73.0156 120.212 73.0412 120.382 73.0639 120.55C73.0838 120.714 73.1009 120.851 73.1151 120.959C73.1491 121.212 73.2031 121.446 73.277 121.662C73.3509 121.875 73.4602 122.047 73.6051 122.178C73.7472 122.305 73.9389 122.369 74.1804 122.369C74.5128 122.369 74.7642 122.246 74.9347 121.999C75.1023 121.751 75.1861 121.439 75.1861 121.061ZM76.1364 113.685C76.1364 114.307 75.9915 114.844 75.7017 115.295C75.4119 115.744 75.0128 116.089 74.5043 116.331C73.9957 116.572 73.4148 116.693 72.7614 116.693C72.0937 116.693 71.5057 116.57 70.9972 116.322C70.4886 116.072 70.0909 115.724 69.804 115.278C69.5142 114.83 69.3693 114.304 69.3693 113.702C69.3693 113.222 69.4574 112.793 69.6335 112.415C69.8097 112.034 70.0568 111.724 70.375 111.486C70.6932 111.247 71.0653 111.102 71.4915 111.051V112.176C71.1875 112.247 70.9233 112.411 70.6989 112.666C70.4716 112.919 70.358 113.257 70.358 113.68C70.358 114.055 70.456 114.384 70.652 114.665C70.8452 114.943 71.1193 115.161 71.4744 115.317C71.8295 115.47 72.2472 115.547 72.7273 115.547C73.2187 115.547 73.6449 115.47 74.0057 115.317C74.3665 115.163 74.6463 114.947 74.8452 114.669C75.044 114.388 75.1435 114.058 75.1435 113.68C75.1435 113.428 75.098 113.199 75.0071 112.994C74.9162 112.79 74.7869 112.616 74.6193 112.474C74.4489 112.332 74.2457 112.233 74.0099 112.176V111.051C74.4134 111.105 74.7756 111.246 75.0966 111.473C75.4176 111.697 75.6719 111.997 75.8594 112.372C76.044 112.747 76.1364 113.185 76.1364 113.685ZM76.1364 106.846C76.1364 107.485 75.9972 108.035 75.7188 108.495C75.4375 108.956 75.0455 109.311 74.5426 109.561C74.0369 109.808 73.4474 109.931 72.7741 109.931C72.1037 109.931 71.5128 109.808 71.0014 109.561C70.4872 109.311 70.0866 108.963 69.7997 108.517C69.5128 108.068 69.3693 107.544 69.3693 106.944C69.3693 106.589 69.429 106.243 69.5483 105.904C69.6648 105.564 69.8523 105.257 70.1108 104.984C70.3665 104.708 70.7031 104.491 71.1207 104.332C71.5384 104.17 72.0483 104.089 72.6506 104.089H73.0895V109.216H72.1776V105.227C71.8253 105.227 71.5128 105.298 71.2401 105.44C70.9645 105.579 70.7472 105.778 70.5881 106.037C70.429 106.292 70.3494 106.593 70.3494 106.94C70.3494 107.321 70.4418 107.65 70.6264 107.929C70.8111 108.204 71.0526 108.417 71.3509 108.568C71.6491 108.718 71.9702 108.794 72.3139 108.794H72.9744C73.4403 108.794 73.8366 108.713 74.1634 108.551C74.4872 108.386 74.7344 108.157 74.9048 107.865C75.0724 107.572 75.1562 107.231 75.1562 106.842C75.1562 106.589 75.1207 106.359 75.0497 106.152C74.9759 105.944 74.8665 105.767 74.7216 105.619C74.5767 105.468 74.3949 105.352 74.1761 105.27L74.4233 104.179C74.7642 104.278 75.0639 104.451 75.3224 104.699C75.5781 104.943 75.7784 105.248 75.9233 105.615C76.0653 105.978 76.1364 106.389 76.1364 106.846ZM72.0881 101.472H76V102.614H67.2727V101.48H70.4986V101.395C70.152 101.244 69.8778 101.013 69.6761 100.7C69.4716 100.388 69.3693 99.9759 69.3693 99.4645C69.3693 99.0185 69.4602 98.6278 69.642 98.2926C69.821 97.9545 70.0938 97.6932 70.4602 97.5085C70.8267 97.321 71.2869 97.2273 71.8409 97.2273H76V98.3693H71.9517C71.4517 98.3693 71.0639 98.4986 70.7884 98.7571C70.5128 99.0128 70.375 99.3693 70.375 99.8267C70.375 100.142 70.4418 100.425 70.5753 100.675C70.7088 100.922 70.9034 101.116 71.1591 101.259C71.4148 101.401 71.7244 101.472 72.0881 101.472ZM76.1364 92.7433C76.1364 93.3455 75.9957 93.8725 75.7145 94.3242C75.4304 94.7759 75.0355 95.1268 74.5298 95.3768C74.0241 95.6268 73.4347 95.7518 72.7614 95.7518C72.0795 95.7518 71.4844 95.6268 70.9759 95.3768C70.4673 95.1268 70.0724 94.7759 69.7912 94.3242C69.5099 93.8725 69.3693 93.3455 69.3693 92.7433C69.3693 92.141 69.5099 91.614 69.7912 91.1623C70.0724 90.7106 70.4673 90.3597 70.9759 90.1097C71.4844 89.8597 72.0795 89.7347 72.7614 89.7347C73.4347 89.7347 74.0241 89.8597 74.5298 90.1097C75.0355 90.3597 75.4304 90.7106 75.7145 91.1623C75.9957 91.614 76.1364 92.141 76.1364 92.7433ZM75.1477 92.7433C75.1477 92.3171 75.0384 91.9677 74.8196 91.695C74.598 91.4194 74.3068 91.2148 73.946 91.0813C73.5824 90.9478 73.1861 90.881 72.7571 90.881C72.331 90.881 71.9361 90.9478 71.5724 91.0813C71.206 91.2148 70.9119 91.4194 70.6903 91.695C70.4659 91.9677 70.3537 92.3171 70.3537 92.7433C70.3537 93.1665 70.4659 93.516 70.6903 93.7915C70.9119 94.0671 71.206 94.2717 71.5724 94.4052C71.9361 94.5387 72.331 94.6055 72.7571 94.6055C73.1861 94.6055 73.5824 94.5387 73.946 94.4052C74.3068 94.2717 74.598 94.0671 74.8196 93.7915C75.0384 93.516 75.1477 93.1665 75.1477 92.7433ZM67.2727 87.1161H76V88.2582H67.2727V87.1161ZM76.1321 82.8771C76.1321 83.4141 75.9957 83.8899 75.723 84.3047C75.4474 84.7195 75.0568 85.0447 74.5511 85.2805C74.0455 85.5163 73.4432 85.6342 72.7443 85.6342C72.0455 85.6342 71.4446 85.5163 70.9418 85.2805C70.4361 85.0447 70.0483 84.718 69.7784 84.3004C69.5057 83.8828 69.3693 83.4041 69.3693 82.8643C69.3693 82.4467 69.4389 82.1143 69.5781 81.8672C69.7145 81.62 69.8722 81.4283 70.0511 81.2919C70.2301 81.1555 70.3807 81.0504 70.5028 80.9766V80.8956H67.2727V79.7578H76V80.8658H74.9858V80.9766C75.1165 81.0533 75.2727 81.1612 75.4545 81.3004C75.6335 81.4396 75.7912 81.6357 75.9276 81.8885C76.0639 82.1385 76.1321 82.468 76.1321 82.8771ZM75.1392 82.6683C75.1392 82.282 75.0384 81.9567 74.8366 81.6925C74.6321 81.4254 74.3494 81.2223 73.9886 81.0831C73.625 80.9439 73.2045 80.8743 72.7273 80.8743C72.2557 80.8743 71.8423 80.9425 71.4872 81.0788C71.1321 81.2152 70.8565 81.4169 70.6605 81.6839C70.4616 81.951 70.3622 82.2791 70.3622 82.6683C70.3622 83.0717 70.4673 83.4084 70.6776 83.6783C70.8849 83.9482 71.1676 84.1513 71.5256 84.2876C71.8807 84.4212 72.2812 84.4879 72.7273 84.4879C73.179 84.4879 73.5881 84.4197 73.9545 84.2834C74.3182 84.1442 74.6065 83.9411 74.8196 83.674C75.0327 83.4041 75.1392 83.0689 75.1392 82.6683ZM76.1364 75.0767C76.1364 75.7159 75.9972 76.2656 75.7188 76.7259C75.4375 77.1861 75.0455 77.5412 74.5426 77.7912C74.0369 78.0384 73.4474 78.1619 72.7741 78.1619C72.1037 78.1619 71.5128 78.0384 71.0014 77.7912C70.4872 77.5412 70.0866 77.1932 69.7997 76.7472C69.5128 76.2983 69.3693 75.7741 69.3693 75.1747C69.3693 74.8196 69.429 74.473 69.5483 74.1349C69.6648 73.794 69.8523 73.4872 70.1108 73.2145C70.3665 72.9389 70.7031 72.7216 71.1207 72.5625C71.5384 72.4006 72.0483 72.3196 72.6506 72.3196H73.0895V77.446H72.1776V73.4574C71.8253 73.4574 71.5128 73.5284 71.2401 73.6705C70.9645 73.8097 70.7472 74.0085 70.5881 74.267C70.429 74.5227 70.3494 74.8239 70.3494 75.1705C70.3494 75.5511 70.4418 75.8807 70.6264 76.1591C70.8111 76.4347 71.0526 76.6477 71.3509 76.7983C71.6491 76.9489 71.9702 77.0241 72.3139 77.0241H72.9744C73.4403 77.0241 73.8366 76.9432 74.1634 76.7812C74.4872 76.6165 74.7344 76.3878 74.9048 76.0952C75.0724 75.8026 75.1562 75.4616 75.1562 75.0724C75.1562 74.8196 75.1207 74.5895 75.0497 74.3821C74.9759 74.1747 74.8665 73.9972 74.7216 73.8494C74.5767 73.6989 74.3949 73.5824 74.1761 73.5L74.4233 72.4091C74.7642 72.5085 75.0639 72.6818 75.3224 72.929C75.5781 73.1733 75.7784 73.4787 75.9233 73.8452C76.0653 74.2088 76.1364 74.6193 76.1364 75.0767ZM76 70.8441H69.4545V69.7404H70.4688V69.6722C70.1307 69.5529 69.8608 69.3398 69.6591 69.033C69.4545 68.7234 69.3523 68.3754 69.3523 67.989C69.3523 67.9123 69.3551 67.82 69.3608 67.712C69.3636 67.6012 69.3693 67.5146 69.3778 67.4521H70.4986C70.4872 67.4947 70.473 67.5799 70.456 67.7077C70.4361 67.8327 70.4261 67.9606 70.4261 68.0913C70.4261 68.4009 70.4915 68.6779 70.6222 68.9222C70.75 69.1637 70.9276 69.354 71.1548 69.4933C71.3821 69.6325 71.6406 69.7021 71.9304 69.7021H76V70.8441Z" fill="black"/>
</g>
<defs>
<clipPath id="clip0_426_283">
<rect width="240" height="144" fill="white" transform="matrix(0 -1 1 0 0 240)"/>
</clipPath>
</defs>
</svg>
